<svg width="45" height="45" viewBox="0 0 45 45" fill="none" xmlns="http://www.w3.org/2000/svg">
<g id="Group 39300">
<path id="Ellipse 103" d="M22.1077 0.0147705C26.5265 0.0147706 30.8432 1.34278 34.4979 3.82648L31.4003 8.38437C28.6593 6.52159 25.4218 5.52559 22.1077 5.52559V0.0147705Z" fill="#16A799"/>
<path id="Ellipse 106" d="M35.0666 4.22623C38.6411 6.82393 41.3524 10.436 42.8487 14.5937L37.6635 16.4597C36.5412 13.3415 34.5078 10.6325 31.8269 8.68418L35.0666 4.22623Z" fill="#16A799"/>
<path id="Ellipse 109" d="M43.0397 15.1475C44.425 19.3435 44.5173 23.8589 43.3045 28.108L38.0053 26.5955C38.9149 23.4087 38.8457 20.0221 37.8067 16.8751L43.0397 15.1475Z" fill="#16A799"/>
<path id="Ellipse 112" d="M43.1118 28.7465C41.771 32.9569 39.1958 36.6672 35.7203 39.396L32.3172 35.0615C34.9238 33.0149 36.8552 30.2322 37.8608 27.0744L43.1118 28.7465Z" fill="#16A799"/>
<path id="Ellipse 115" d="M35.1737 39.8115C31.6149 42.4307 27.3511 43.9198 22.9354 44.0858L22.7285 38.5788C26.0402 38.4544 29.2381 37.3375 31.9072 35.3731L35.1737 39.8115Z" fill="#16A799"/>
<path id="Ellipse 118" d="M22.1077 44.1013C17.689 44.1013 13.3722 42.7733 9.71757 40.2896L12.8151 35.7317C15.5561 37.5945 18.7937 38.5905 22.1077 38.5905L22.1077 44.1013Z" fill="#16A799"/>
<path id="Ellipse 121" d="M9.2666 39.9748C5.67504 37.4007 2.94 33.8066 1.41635 29.6589L6.58919 27.7587C7.73193 30.8695 9.78321 33.5651 12.4769 35.4956L9.2666 39.9748Z" fill="#16A799"/>
<path id="Ellipse 124" d="M1.18924 29.0095C-0.204232 24.8162 -0.305303 20.301 0.899147 16.0495L6.20129 17.5517C5.29795 20.7402 5.37376 24.1267 6.41886 27.2716L1.18924 29.0095Z" fill="#16A799"/>
<path id="Ellipse 127" d="M1.08706 15.422C2.41731 11.2082 4.98326 7.49151 8.45197 4.75411L11.8659 9.08009C9.26437 11.1331 7.33991 13.9207 6.34222 17.081L1.08706 15.422Z" fill="#16A799"/>
<path id="Ellipse 130" d="M9.02819 4.31455C12.585 1.69265 16.8477 0.200241 21.2632 0.0309534L21.4743 5.53772C18.1627 5.66469 14.9657 6.784 12.2981 8.75042L9.02819 4.31455Z" fill="#16A799"/>
<g id="100%">
<path d="M13.5064 18.9004V25.313H12.1506V20.1873H12.113L10.6445 21.1079V19.9055L12.232 18.9004H13.5064Z" fill="black"/>
<path d="M17.5448 25.4539C17.0062 25.4518 16.5428 25.3193 16.1546 25.0562C15.7684 24.7932 15.4709 24.4123 15.2622 23.9134C15.0555 23.4145 14.9532 22.8143 14.9553 22.113C14.9553 21.4137 15.0587 20.8177 15.2653 20.3251C15.4741 19.8324 15.7715 19.4578 16.1577 19.201C16.546 18.9422 17.0083 18.8127 17.5448 18.8127C18.0813 18.8127 18.5426 18.9422 18.9288 19.201C19.317 19.4598 19.6155 19.8356 19.8243 20.3282C20.033 20.8188 20.1363 21.4137 20.1343 22.113C20.1343 22.8164 20.0299 23.4176 19.8211 23.9165C19.6145 24.4154 19.3181 24.7964 18.9319 25.0594C18.5457 25.3224 18.0834 25.4539 17.5448 25.4539ZM17.5448 24.3298C17.9122 24.3298 18.2055 24.1451 18.4246 23.7756C18.6438 23.4061 18.7524 22.8519 18.7503 22.113C18.7503 21.6266 18.7002 21.2216 18.6 20.8981C18.5019 20.5745 18.362 20.3313 18.1804 20.1685C18.0009 20.0057 17.789 19.9243 17.5448 19.9243C17.1795 19.9243 16.8873 20.1069 16.6681 20.4722C16.4489 20.8375 16.3383 21.3845 16.3362 22.113C16.3362 22.6056 16.3852 23.0168 16.4833 23.3466C16.5835 23.6744 16.7244 23.9207 16.906 24.0856C17.0876 24.2484 17.3006 24.3298 17.5448 24.3298Z" fill="black"/>
<path d="M23.6153 25.4539C23.0767 25.4518 22.6133 25.3193 22.2251 25.0562C21.8389 24.7932 21.5414 24.4123 21.3327 23.9134C21.126 23.4145 21.0238 22.8143 21.0258 22.113C21.0258 21.4137 21.1292 20.8177 21.3358 20.3251C21.5446 19.8324 21.842 19.4578 22.2282 19.201C22.6165 18.9422 23.0788 18.8127 23.6153 18.8127C24.1518 18.8127 24.6131 18.9422 24.9993 19.201C25.3875 19.4598 25.686 19.8356 25.8948 20.3282C26.1035 20.8188 26.2068 21.4137 26.2048 22.113C26.2048 22.8164 26.1004 23.4176 25.8916 23.9165C25.685 24.4154 25.3886 24.7964 25.0024 25.0594C24.6162 25.3224 24.1539 25.4539 23.6153 25.4539ZM23.6153 24.3298C23.9827 24.3298 24.276 24.1451 24.4952 23.7756C24.7143 23.4061 24.8229 22.8519 24.8208 22.113C24.8208 21.6266 24.7707 21.2216 24.6705 20.8981C24.5724 20.5745 24.4325 20.3313 24.2509 20.1685C24.0714 20.0057 23.8595 19.9243 23.6153 19.9243C23.25 19.9243 22.9578 20.1069 22.7386 20.4722C22.5194 20.8375 22.4088 21.3845 22.4067 22.113C22.4067 22.6056 22.4557 23.0168 22.5538 23.3466C22.654 23.6744 22.7949 23.9207 22.9765 24.0856C23.1582 24.2484 23.3711 24.3298 23.6153 24.3298Z" fill="black"/>
<path d="M30.6815 24.1106V23.7725C30.6815 23.5157 30.7358 23.2798 30.8443 23.0648C30.955 22.8477 31.1147 22.6745 31.3234 22.5451C31.5342 22.4136 31.791 22.3478 32.0937 22.3478C32.4005 22.3478 32.6583 22.4125 32.8671 22.5419C33.0779 22.6714 33.2365 22.8446 33.343 23.0617C33.4515 23.2767 33.5058 23.5136 33.5058 23.7725V24.1106C33.5058 24.3674 33.4515 24.6043 33.343 24.8214C33.2344 25.0364 33.0748 25.2086 32.8639 25.338C32.6531 25.4696 32.3963 25.5353 32.0937 25.5353C31.7868 25.5353 31.529 25.4696 31.3203 25.338C31.1115 25.2086 30.9529 25.0364 30.8443 24.8214C30.7358 24.6043 30.6815 24.3674 30.6815 24.1106ZM31.5927 23.7725V24.1106C31.5927 24.2588 31.6282 24.3987 31.6991 24.5302C31.7722 24.6617 31.9037 24.7275 32.0937 24.7275C32.2836 24.7275 32.413 24.6628 32.4819 24.5333C32.5529 24.4039 32.5884 24.263 32.5884 24.1106V23.7725C32.5884 23.6201 32.555 23.4781 32.4882 23.3466C32.4214 23.2151 32.2899 23.1494 32.0937 23.1494C31.9058 23.1494 31.7753 23.2151 31.7023 23.3466C31.6292 23.4781 31.5927 23.6201 31.5927 23.7725ZM27.3907 20.4409V20.1028C27.3907 19.8439 27.446 19.607 27.5566 19.392C27.6673 19.1749 27.827 19.0017 28.0357 18.8722C28.2465 18.7428 28.5012 18.6781 28.7997 18.6781C29.1086 18.6781 29.3675 18.7428 29.5762 18.8722C29.785 19.0017 29.9436 19.1749 30.0522 19.392C30.1607 19.607 30.215 19.8439 30.215 20.1028V20.4409C30.215 20.6998 30.1597 20.9367 30.049 21.1517C29.9405 21.3667 29.7808 21.5389 29.57 21.6683C29.3612 21.7957 29.1045 21.8593 28.7997 21.8593C28.4949 21.8593 28.2371 21.7946 28.0263 21.6652C27.8176 21.5337 27.6589 21.3615 27.5504 21.1486C27.4439 20.9336 27.3907 20.6977 27.3907 20.4409ZM28.3081 20.1028V20.4409C28.3081 20.5933 28.3436 20.7342 28.4146 20.8636C28.4876 20.9931 28.616 21.0578 28.7997 21.0578C28.9917 21.0578 29.1222 20.9931 29.1911 20.8636C29.2621 20.7342 29.2976 20.5933 29.2976 20.4409V20.1028C29.2976 19.9504 29.2642 19.8084 29.1974 19.6769C29.1306 19.5454 28.998 19.4797 28.7997 19.4797C28.6139 19.4797 28.4855 19.5465 28.4146 19.6801C28.3436 19.8137 28.3081 19.9546 28.3081 20.1028ZM27.804 25.313L32.2126 18.9004H33.033L28.6244 25.313H27.804Z" fill="black"/>
</g>
</g>
</svg>
