<svg width="46" height="46" viewBox="0 0 46 46" fill="none" xmlns="http://www.w3.org/2000/svg">
<circle cx="22.9721" cy="23.146" r="21.9393" stroke="#838383" stroke-width="1.18071"/>
<mask id="path-2-inside-1_2_9508" fill="white">
<path d="M22.9721 44.5492C22.9721 45.1714 22.4673 45.6787 21.846 45.6476C17.0357 45.4069 12.4177 43.6297 8.67939 40.5617C4.65018 37.255 1.89217 32.6536 0.875284 27.5414C-0.141597 22.4291 0.64557 17.1225 3.10266 12.5256C5.55975 7.92871 9.53474 4.32599 14.3503 2.3313C19.1659 0.336619 24.5242 0.0733848 29.5121 1.58645C34.5 3.09952 38.809 6.29528 41.7048 10.6292C44.6007 14.9631 45.9042 20.1671 45.3933 25.3543C44.9193 30.1671 42.9106 34.6892 39.6794 38.2607C39.262 38.7221 38.5464 38.7203 38.1064 38.2804C37.6665 37.8405 37.6692 37.1292 38.084 36.6655C40.948 33.4643 42.7282 29.4274 43.1512 25.1335C43.611 20.465 42.4378 15.7814 39.8316 11.8809C37.2253 7.98035 33.3472 5.10417 28.8581 3.74241C24.369 2.38065 19.5465 2.61756 15.2125 4.41278C10.8785 6.20799 7.30099 9.45044 5.0896 13.5876C2.87822 17.7248 2.16977 22.5008 3.08496 27.1018C4.00016 31.7028 6.48237 35.8441 10.1087 38.8201C13.444 41.5574 17.5574 43.153 21.8461 43.3915C22.4672 43.426 22.9721 43.9271 22.9721 44.5492Z"/>
</mask>
<path d="M22.9721 44.5492C22.9721 45.1714 22.4673 45.6787 21.846 45.6476C17.0357 45.4069 12.4177 43.6297 8.67939 40.5617C4.65018 37.255 1.89217 32.6536 0.875284 27.5414C-0.141597 22.4291 0.64557 17.1225 3.10266 12.5256C5.55975 7.92871 9.53474 4.32599 14.3503 2.3313C19.1659 0.336619 24.5242 0.0733848 29.5121 1.58645C34.5 3.09952 38.809 6.29528 41.7048 10.6292C44.6007 14.9631 45.9042 20.1671 45.3933 25.3543C44.9193 30.1671 42.9106 34.6892 39.6794 38.2607C39.262 38.7221 38.5464 38.7203 38.1064 38.2804C37.6665 37.8405 37.6692 37.1292 38.084 36.6655C40.948 33.4643 42.7282 29.4274 43.1512 25.1335C43.611 20.465 42.4378 15.7814 39.8316 11.8809C37.2253 7.98035 33.3472 5.10417 28.8581 3.74241C24.369 2.38065 19.5465 2.61756 15.2125 4.41278C10.8785 6.20799 7.30099 9.45044 5.0896 13.5876C2.87822 17.7248 2.16977 22.5008 3.08496 27.1018C4.00016 31.7028 6.48237 35.8441 10.1087 38.8201C13.444 41.5574 17.5574 43.153 21.8461 43.3915C22.4672 43.426 22.9721 43.9271 22.9721 44.5492Z" stroke="#075256" stroke-width="2.36142" mask="url(#path-2-inside-1_2_9508)"/>
</svg>
