<svg width="18" height="18" viewBox="0 0 18 18" fill="none" xmlns="http://www.w3.org/2000/svg">
<g id="Group">
<g id="Group_2">
<g id="Group_3">
<path id="Vector" d="M2.92817 17.6885L7.98828 12.632L5.37187 10.0156L0.311766 15.0757C-0.103479 15.491 -0.103479 16.1745 0.311766 16.5897L1.41051 17.6885C1.82943 18.1037 2.5166 18.1037 2.92817 17.6885Z" fill="black" fill-opacity="0.35"/>
<path id="Vector_2" d="M6.49889 10.1299L7.86956 11.5005L9.43133 9.93877C11.559 11.416 14.5061 11.2102 16.4023 9.31407C18.53 7.1864 18.53 3.72848 16.4023 1.59713C14.2746 -0.534214 10.8167 -0.530539 8.68536 1.59713C6.78919 3.49329 6.58341 6.44043 8.06065 8.5681L6.49889 10.1299ZM9.75838 2.65545C11.3018 1.11207 13.8043 1.11207 15.344 2.65545C16.8874 4.19884 16.8874 6.70133 15.344 8.24105C13.8006 9.78443 11.2981 9.78443 9.75838 8.24105C8.21499 6.70133 8.21499 4.19884 9.75838 2.65545Z" fill="black" fill-opacity="0.35"/>
</g>
</g>
</g>
</svg>
