<svg width="33" height="33" viewBox="0 0 33 33" fill="none" xmlns="http://www.w3.org/2000/svg">
<g id="Calendar Icon">
<g id="g996">
<g id="g998">
<g id="Clip path group">
<mask id="mask0_1513_1764" style="mask-type:luminance" maskUnits="userSpaceOnUse" x="0" y="0" width="33" height="33">
<g id="clipPath1004">
<path id="path1002" d="M0 3.8147e-06H33V33H0V3.8147e-06Z" fill="white"/>
</g>
</mask>
<g mask="url(#mask0_1513_1764)">
<g id="g1000">
<g id="g1006">
<path id="path1008" d="M32.0332 7.08984V11.8594H0.966797V7.08984C0.966797 6.02186 1.8324 5.15625 2.90039 5.15625H30.0996C31.1676 5.15625 32.0332 6.02186 32.0332 7.08984Z" stroke="#075256" stroke-width="2" stroke-miterlimit="10" stroke-linecap="round" stroke-linejoin="round"/>
</g>
<g id="g1010">
<path id="path1012" d="M6.1875 7.73438V2.57812" stroke="#075256" stroke-width="2" stroke-miterlimit="10" stroke-linecap="round" stroke-linejoin="round"/>
</g>
<g id="g1014">
<path id="path1016" d="M16.5 7.73438V2.57812" stroke="#075256" stroke-width="2" stroke-miterlimit="10" stroke-linecap="round" stroke-linejoin="round"/>
</g>
<g id="g1018">
<path id="path1020" d="M26.8125 7.73438V2.57812" stroke="#075256" stroke-width="2" stroke-miterlimit="10" stroke-linecap="round" stroke-linejoin="round"/>
</g>
<g id="g1022">
<path id="path1024" d="M7.21875 17.0156H9.28125" stroke="#075256" stroke-width="2" stroke-miterlimit="10" stroke-linecap="round" stroke-linejoin="round"/>
</g>
<g id="g1026">
<path id="path1028" d="M7.21875 21.1406H9.28125" stroke="#075256" stroke-width="2" stroke-miterlimit="10" stroke-linecap="round" stroke-linejoin="round"/>
</g>
<g id="g1030">
<path id="path1032" d="M7.21875 25.2656H9.28125" stroke="#075256" stroke-width="2" stroke-miterlimit="10" stroke-linecap="round" stroke-linejoin="round"/>
</g>
<g id="g1034">
<path id="path1036" d="M15.4688 17.0156H17.5312" stroke="#075256" stroke-width="2" stroke-miterlimit="10" stroke-linecap="round" stroke-linejoin="round"/>
</g>
<g id="g1038">
<path id="path1040" d="M15.4688 21.1406H17.5312" stroke="#075256" stroke-width="2" stroke-miterlimit="10" stroke-linecap="round" stroke-linejoin="round"/>
</g>
<g id="g1042">
<path id="path1044" d="M15.4688 25.2656H17.5312" stroke="#075256" stroke-width="2" stroke-miterlimit="10" stroke-linecap="round" stroke-linejoin="round"/>
</g>
<g id="g1046">
<path id="path1048" d="M23.7188 17.0156H25.7812" stroke="#075256" stroke-width="2" stroke-miterlimit="10" stroke-linecap="round" stroke-linejoin="round"/>
</g>
<g id="g1050">
<path id="path1052" d="M23.7188 21.1406H25.7812" stroke="#075256" stroke-width="2" stroke-miterlimit="10" stroke-linecap="round" stroke-linejoin="round"/>
</g>
<g id="g1054">
<path id="path1056" d="M23.7188 25.2656H25.7812" stroke="#075256" stroke-width="2" stroke-miterlimit="10" stroke-linecap="round" stroke-linejoin="round"/>
</g>
<g id="g1058">
<path id="path1060" d="M30.0996 30.4219H2.90039C1.83253 30.4219 0.966797 29.5561 0.966797 28.4883V7.08985C0.966797 6.02199 1.83253 5.15625 2.90039 5.15625H30.0996C31.1675 5.15625 32.0332 6.02199 32.0332 7.08985V28.4883C32.0332 29.5561 31.1675 30.4219 30.0996 30.4219Z" stroke="#075256" stroke-width="2" stroke-miterlimit="10" stroke-linecap="round" stroke-linejoin="round"/>
</g>
</g>
</g>
</g>
</g>
</g>
</g>
</svg>
