<svg width="33" height="33" viewBox="0 0 33 33" fill="none" xmlns="http://www.w3.org/2000/svg">
<g id="Career Icon" clip-path="url(#clip0_1513_1762)">
<path id="Vector" d="M31.35 6.60039H24.2V4.40039C24.1981 2.88225 22.9681 1.65227 21.45 1.65039H11.55C10.0319 1.65227 8.80188 2.88225 8.8 4.40039V6.60039H1.65C0.738794 6.60039 0 7.33918 0 8.25039V20.4933C0.00349121 21.191 0.443115 21.8116 1.1 22.046V29.7004C1.1 30.6116 1.83879 31.3504 2.75 31.3504H30.25C31.1612 31.3504 31.9 30.6116 31.9 29.7004V22.0466C32.5569 21.8119 32.9968 21.191 33 20.4933V8.25039C33 7.33918 32.2612 6.60039 31.35 6.60039ZM9.9 4.40039C9.9 3.48918 10.6388 2.75039 11.55 2.75039H21.45C22.3612 2.75039 23.1 3.48918 23.1 4.40039V6.60039H22V4.40039C22 4.09666 21.7537 3.85039 21.45 3.85039H11.55C11.2463 3.85039 11 4.09666 11 4.40039V6.60039H9.9V4.40039ZM20.9 6.60039H12.1V4.95039H20.9V6.60039ZM30.8 29.7004C30.8 30.0041 30.5537 30.2504 30.25 30.2504H2.75C2.44626 30.2504 2.2 30.0041 2.2 29.7004V22.2351L14.3 23.9039V25.3004C14.3 26.2116 15.0388 26.9504 15.95 26.9504H17.05C17.9612 26.9504 18.7 26.2116 18.7 25.3004V23.9039L30.8 22.2351V29.7004ZM17.6 25.3004C17.6 25.6041 17.3537 25.8504 17.05 25.8504H15.95C15.6463 25.8504 15.4 25.6041 15.4 25.3004V22.0004C15.4 21.6967 15.6463 21.4504 15.95 21.4504H17.05C17.3537 21.4504 17.6 21.6967 17.6 22.0004V25.3004ZM31.9 20.4933C31.9003 20.7675 31.6986 21 31.4271 21.0384L31.2745 21.0594L18.7 22.7934V22.0004C18.7 21.0892 17.9612 20.3504 17.05 20.3504H15.95C15.0388 20.3504 14.3 21.0892 14.3 22.0004V22.7934L1.57346 21.0384C1.30195 21.0003 1.09973 20.7677 1.1 20.4933V8.25039C1.1 7.94666 1.34626 7.70039 1.65 7.70039H31.35C31.6537 7.70039 31.9 7.94666 31.9 8.25039V20.4933Z" fill="#075256"/>
</g>
<defs>
<clipPath id="clip0_1513_1762">
<rect width="33" height="33" fill="white"/>
</clipPath>
</defs>
</svg>
