<svg width="51" height="51" viewBox="0 0 51 51" fill="none" xmlns="http://www.w3.org/2000/svg">
<path d="M21.0107 15.278H10.505C9.3905 15.278 8.32163 15.7208 7.53355 16.5088C6.74547 17.2969 6.30273 18.3658 6.30273 19.4803V38.3906C6.30273 39.5051 6.74547 40.5739 7.53355 41.362C8.32163 42.1501 9.3905 42.5928 10.505 42.5928H39.921C41.0355 42.5928 42.1043 42.1501 42.8924 41.362C43.6805 40.5739 44.1232 39.5051 44.1232 38.3906V19.4803C44.1232 18.3658 43.6805 17.2969 42.8924 16.5088C42.1043 15.7208 41.0355 15.278 39.921 15.278H29.4153M21.0107 15.278V13.1769C21.0107 12.0624 21.4534 10.9935 22.2415 10.2054C23.0296 9.41735 24.0985 8.97461 25.213 8.97461C26.3275 8.97461 27.3964 9.41735 28.1844 10.2054C28.9725 10.9935 29.4153 12.0624 29.4153 13.1769V15.278M21.0107 15.278C21.0107 16.3925 21.4534 17.4614 22.2415 18.2495C23.0296 19.0376 24.0985 19.4803 25.213 19.4803C26.3275 19.4803 27.3964 19.0376 28.1844 18.2495C28.9725 17.4614 29.4153 16.3925 29.4153 15.278M18.9096 32.0871C20.0241 32.0871 21.0929 31.6444 21.881 30.8563C22.6691 30.0682 23.1118 28.9994 23.1118 27.8849C23.1118 26.7703 22.6691 25.7015 21.881 24.9134C21.0929 24.1253 20.0241 23.6826 18.9096 23.6826C17.7951 23.6826 16.7262 24.1253 15.9381 24.9134C15.15 25.7015 14.7073 26.7703 14.7073 27.8849C14.7073 28.9994 15.15 30.0682 15.9381 30.8563C16.7262 31.6444 17.7951 32.0871 18.9096 32.0871ZM18.9096 32.0871C21.6537 32.0871 23.988 33.8416 24.8558 36.2894M18.9096 32.0871C17.6056 32.0868 16.3335 32.4907 15.2686 33.2433C14.2037 33.9959 13.3983 35.0601 12.9633 36.2894M31.5164 25.7837H37.8198M31.5164 34.1883H35.7187" stroke="#43B38E" stroke-width="4.20228" stroke-linecap="round" stroke-linejoin="round"/>
</svg>
