<svg width="24" height="24" viewBox="0 0 24 24" fill="none" xmlns="http://www.w3.org/2000/svg">
<g id="akar-icons:instagram-fill" filter="url(#filter0_i_1513_1253)">
<g id="Group">
<path id="Vector" fill-rule="evenodd" clip-rule="evenodd" d="M7.54396 1.27848C8.69231 1.22561 9.05845 1.21387 11.9836 1.21387C14.9088 1.21387 15.275 1.22659 16.4224 1.27848C17.5697 1.33037 18.3529 1.51344 19.0382 1.77874C19.7558 2.04992 20.4068 2.47382 20.9452 3.02205C21.4935 3.55951 21.9164 4.20955 22.1866 4.92813C22.4529 5.61341 22.635 6.3966 22.6878 7.54201C22.7407 8.69231 22.7524 9.05845 22.7524 11.9827C22.7524 14.9079 22.7397 15.274 22.6878 16.4224C22.636 17.5678 22.4529 18.351 22.1866 19.0362C21.9164 19.7549 21.4928 20.406 20.9452 20.9443C20.4068 21.4925 19.7558 21.9154 19.0382 22.1856C18.3529 22.4519 17.5697 22.634 16.4243 22.6869C15.275 22.7397 14.9088 22.7515 11.9836 22.7515C9.05845 22.7515 8.69231 22.7387 7.54396 22.6869C6.39855 22.635 5.61537 22.4519 4.93008 22.1856C4.21143 21.9154 3.56031 21.4918 3.02204 20.9443C2.47419 20.4065 2.05022 19.7557 1.77972 19.0372C1.51441 18.3519 1.33232 17.5687 1.27946 16.4233C1.22659 15.273 1.21484 14.9069 1.21484 11.9827C1.21484 9.05747 1.22757 8.69133 1.27946 7.54397C1.33134 6.3966 1.51441 5.61341 1.77972 4.92813C2.05062 4.20963 2.47491 3.55884 3.02302 3.02107C3.56052 2.47333 4.21099 2.04937 4.9291 1.77874C5.61439 1.51344 6.39757 1.33135 7.54298 1.27848H7.54396ZM16.3352 3.21686C15.1996 3.16498 14.8589 3.15421 11.9836 3.15421C9.10838 3.15421 8.76769 3.16498 7.63207 3.21686C6.58162 3.26483 6.01186 3.44007 5.63201 3.5879C5.12979 3.7837 4.77051 4.01571 4.3936 4.39262C4.03631 4.74021 3.76135 5.16336 3.58888 5.63103C3.44105 6.01088 3.26581 6.58065 3.21784 7.63109C3.16595 8.76671 3.15519 9.1074 3.15519 11.9827C3.15519 14.8579 3.16595 15.1986 3.21784 16.3342C3.26581 17.3847 3.44105 17.9545 3.58888 18.3343C3.76118 18.8013 4.03627 19.2252 4.3936 19.5727C4.74114 19.93 5.16504 20.2051 5.63201 20.3774C6.01186 20.5253 6.58162 20.7005 7.63207 20.7485C8.76769 20.8004 9.1074 20.8111 11.9836 20.8111C14.8599 20.8111 15.1996 20.8004 16.3352 20.7485C17.3857 20.7005 17.9554 20.5253 18.3353 20.3774C18.8375 20.1816 19.1968 19.9496 19.5737 19.5727C19.931 19.2252 20.2061 18.8013 20.3784 18.3343C20.5262 17.9545 20.7015 17.3847 20.7495 16.3342C20.8013 15.1986 20.8121 14.8579 20.8121 11.9827C20.8121 9.1074 20.8013 8.76671 20.7495 7.63109C20.7015 6.58065 20.5262 6.01088 20.3784 5.63103C20.1826 5.12882 19.9506 4.76953 19.5737 4.39262C19.2261 4.03536 18.8029 3.76041 18.3353 3.5879C17.9554 3.44007 17.3857 3.26483 16.3352 3.21686ZM10.6082 15.3024C11.3763 15.6222 12.2317 15.6653 13.0282 15.4245C13.8246 15.1837 14.5127 14.6738 14.975 13.982C15.4373 13.2902 15.6451 12.4593 15.5628 11.6313C15.4806 10.8033 15.1135 10.0296 14.5241 9.44221C14.1484 9.06675 13.6941 8.77926 13.194 8.60043C12.6939 8.42161 12.1603 8.3559 11.6317 8.40803C11.1031 8.46017 10.5927 8.62885 10.1371 8.90194C9.68153 9.17503 9.29217 9.54573 8.99707 9.98736C8.70196 10.429 8.50844 10.9305 8.43045 11.4559C8.35245 11.9813 8.39191 12.5175 8.54599 13.0258C8.70007 13.5341 8.96494 14.0019 9.32152 14.3956C9.6781 14.7892 10.1175 15.099 10.6082 15.3024ZM8.06968 8.0687C8.58367 7.55471 9.19386 7.14699 9.86542 6.86882C10.537 6.59065 11.2568 6.44748 11.9836 6.44748C12.7105 6.44748 13.4303 6.59065 14.1019 6.86882C14.7734 7.14699 15.3836 7.55471 15.8976 8.0687C16.4116 8.58269 16.8193 9.19288 17.0975 9.86444C17.3757 10.536 17.5188 11.2558 17.5188 11.9827C17.5188 12.7096 17.3757 13.4293 17.0975 14.1009C16.8193 14.7725 16.4116 15.3827 15.8976 15.8966C14.8596 16.9347 13.4517 17.5179 11.9836 17.5179C10.5156 17.5179 9.10773 16.9347 8.06968 15.8966C7.03163 14.8586 6.44846 13.4507 6.44846 11.9827C6.44846 10.5146 7.03163 9.10675 8.06968 8.0687ZM18.7465 7.27181C18.8738 7.15166 18.9758 7.00717 19.0463 6.8469C19.1168 6.68664 19.1545 6.51385 19.1571 6.33877C19.1596 6.16369 19.127 5.98988 19.0612 5.82762C18.9954 5.66537 18.8976 5.51797 18.7738 5.39416C18.65 5.27035 18.5026 5.17263 18.3404 5.10681C18.1781 5.04098 18.0043 5.00838 17.8292 5.01093C17.6541 5.01348 17.4813 5.05114 17.3211 5.12167C17.1608 5.19219 17.0163 5.29416 16.8962 5.42153C16.6625 5.66924 16.5346 5.99827 16.5395 6.33877C16.5445 6.67927 16.682 7.00443 16.9228 7.24522C17.1636 7.48602 17.4887 7.62349 17.8292 7.62845C18.1697 7.63341 18.4987 7.50548 18.7465 7.27181Z" fill="#075256"/>
</g>
</g>
<defs>
<filter id="filter0_i_1513_1253" x="0.236328" y="0.235352" width="23.4961" height="24.2699" filterUnits="userSpaceOnUse" color-interpolation-filters="sRGB">
<feFlood flood-opacity="0" result="BackgroundImageFix"/>
<feBlend mode="normal" in="SourceGraphic" in2="BackgroundImageFix" result="shape"/>
<feColorMatrix in="SourceAlpha" type="matrix" values="0 0 0 0 0 0 0 0 0 0 0 0 0 0 0 0 0 0 127 0" result="hardAlpha"/>
<feOffset dy="0.774828"/>
<feGaussianBlur stdDeviation="1.4528"/>
<feComposite in2="hardAlpha" operator="arithmetic" k2="-1" k3="1"/>
<feColorMatrix type="matrix" values="0 0 0 0 0 0 0 0 0 0 0 0 0 0 0 0 0 0 0.2 0"/>
<feBlend mode="normal" in2="shape" result="effect1_innerShadow_1513_1253"/>
</filter>
</defs>
</svg>
