<svg width="24" height="24" viewBox="0 0 24 24" fill="none" xmlns="http://www.w3.org/2000/svg">
<g id="akar-icons:linkedin-fill" filter="url(#filter0_i_1513_1268)">
<g id="Group">
<path id="Vector" fill-rule="evenodd" clip-rule="evenodd" d="M1.44727 3.24664C1.44727 2.76942 1.63684 2.31174 1.97429 1.97429C2.31174 1.63684 2.76941 1.44727 3.24664 1.44727H21.1835C21.42 1.44688 21.6543 1.49315 21.8729 1.58341C22.0915 1.67368 22.2901 1.80617 22.4574 1.97331C22.6248 2.14045 22.7575 2.33895 22.848 2.55744C22.9385 2.77594 22.985 3.01014 22.9849 3.24664V21.1835C22.9851 21.4201 22.9387 21.6544 22.8484 21.873C22.758 22.0916 22.6254 22.2902 22.4582 22.4575C22.291 22.6248 22.0924 22.7575 21.8739 22.848C21.6553 22.9385 21.4211 22.985 21.1845 22.9849H3.24664C3.01026 22.9849 2.77619 22.9383 2.55782 22.8478C2.33945 22.7573 2.14104 22.6247 1.97394 22.4575C1.80684 22.2903 1.67432 22.0918 1.58395 21.8734C1.49358 21.655 1.44714 21.4209 1.44727 21.1845V3.24664ZM9.97224 9.65897H12.8886V11.1235C13.3096 10.2816 14.3865 9.52387 16.0047 9.52387C19.1071 9.52387 19.8423 11.2009 19.8423 14.2778V19.9774H16.7027V14.9788C16.7027 13.2264 16.2818 12.2376 15.2127 12.2376C13.7296 12.2376 13.1128 13.3037 13.1128 14.9788V19.9774H9.97224V9.65897ZM4.58784 19.8433H7.72842V9.52387H4.58784V19.8423V19.8433ZM8.17777 6.15813C8.18369 6.42703 8.13584 6.6944 8.03703 6.94456C7.93822 7.19472 7.79044 7.42262 7.60235 7.61489C7.41427 7.80716 7.18968 7.95992 6.94176 8.06422C6.69384 8.16851 6.42758 8.22223 6.15862 8.22223C5.88965 8.22223 5.6234 8.16851 5.37548 8.06422C5.12756 7.95992 4.90296 7.80716 4.71488 7.61489C4.5268 7.42262 4.37902 7.19472 4.28021 6.94456C4.18139 6.6944 4.13355 6.42703 4.13947 6.15813C4.15109 5.63032 4.36893 5.12804 4.74632 4.75886C5.12372 4.38968 5.63068 4.18295 6.15862 4.18295C6.68656 4.18295 7.19351 4.38968 7.57091 4.75886C7.94831 5.12804 8.16615 5.63032 8.17777 6.15813Z" fill="#075256"/>
</g>
</g>
<defs>
<filter id="filter0_i_1513_1268" x="0.46875" y="0.46875" width="23.4961" height="24.2699" filterUnits="userSpaceOnUse" color-interpolation-filters="sRGB">
<feFlood flood-opacity="0" result="BackgroundImageFix"/>
<feBlend mode="normal" in="SourceGraphic" in2="BackgroundImageFix" result="shape"/>
<feColorMatrix in="SourceAlpha" type="matrix" values="0 0 0 0 0 0 0 0 0 0 0 0 0 0 0 0 0 0 127 0" result="hardAlpha"/>
<feOffset dy="0.774828"/>
<feGaussianBlur stdDeviation="1.4528"/>
<feComposite in2="hardAlpha" operator="arithmetic" k2="-1" k3="1"/>
<feColorMatrix type="matrix" values="0 0 0 0 0 0 0 0 0 0 0 0 0 0 0 0 0 0 0.2 0"/>
<feBlend mode="normal" in2="shape" result="effect1_innerShadow_1513_1268"/>
</filter>
</defs>
</svg>
