<svg width="27" height="27" viewBox="0 0 27 27" fill="none" xmlns="http://www.w3.org/2000/svg">
<g id="Work">
<path id="Work_2" fill-rule="evenodd" clip-rule="evenodd" d="M11.6306 2.4804C10.777 2.4804 10.0509 3.07356 9.84701 3.87304H16.7011C16.4973 3.07356 15.7711 2.4804 14.9175 2.4804H11.6306ZM18.6377 3.87372H21.1602C23.8356 3.87372 26.0142 6.07873 26.0142 8.78663C26.0142 8.78663 25.9377 9.93297 25.9122 11.5293C25.9097 11.6557 25.8485 11.7795 25.7479 11.8543C25.1351 12.3069 24.5745 12.6808 24.5236 12.7066C22.4087 14.1251 19.9512 15.1231 17.3331 15.6196C17.1624 15.6531 16.9942 15.5641 16.9076 15.412C16.1738 14.1405 14.8029 13.3127 13.2741 13.3127C11.7555 13.3127 10.372 14.1315 9.61649 15.4042C9.52859 15.5538 9.36296 15.6402 9.19352 15.608C6.59711 15.1102 4.13956 14.1135 2.03746 12.7195L0.814415 11.8685C0.712495 11.804 0.648795 11.688 0.648795 11.559C0.610575 10.9014 0.546875 8.78663 0.546875 8.78663C0.546875 6.07873 2.72542 3.87372 5.40082 3.87372H7.9106C8.15266 2.00398 9.71969 0.546875 11.6307 0.546875H14.9176C16.8286 0.546875 18.3956 2.00398 18.6377 3.87372ZM25.58 14.3176L25.5291 14.3434C22.9556 16.0713 19.8598 17.2189 16.6111 17.696C16.1524 17.7605 15.6938 17.4639 15.5664 16.9997C15.2861 15.9423 14.3816 15.246 13.2987 15.246H13.2859H13.2604C12.1775 15.246 11.273 15.9423 10.9927 16.9997C10.8653 17.4639 10.4067 17.7605 9.94804 17.696C6.69933 17.2189 3.60351 16.0713 1.03003 14.3434C1.01729 14.3305 0.889888 14.2531 0.787968 14.3176C0.673308 14.382 0.673308 14.5368 0.673308 14.5368L0.762488 21.1131C0.762488 23.821 2.92829 26.0131 5.60369 26.0131H20.9427C23.6181 26.0131 25.7839 23.821 25.7839 21.1131L25.8858 14.5368C25.8858 14.5368 25.8858 14.382 25.7711 14.3176C25.7074 14.2789 25.631 14.2918 25.58 14.3176ZM14.2286 19.7207C14.2286 20.2623 13.8082 20.6878 13.2731 20.6878C12.7508 20.6878 12.3176 20.2623 12.3176 19.7207V18.0573C12.3176 17.5286 12.7508 17.0901 13.2731 17.0901C13.8082 17.0901 14.2286 17.5286 14.2286 18.0573V19.7207Z" fill="#8d2626"/>
</g>
</svg>
