<svg width="25" height="24" viewBox="0 0 25 24" fill="none" xmlns="http://www.w3.org/2000/svg">
<g id="akar-icons:youtube-fill" clip-path="url(#clip0_1513_1262)" filter="url(#filter0_i_1513_1262)">
<g id="Group">
<g id="Group_2">
<path id="Vector" d="M23.7079 6.83905C23.5748 6.36447 23.3157 5.9348 22.958 5.59574C22.5901 5.24625 22.1393 4.99624 21.6481 4.86933C19.8095 4.38474 12.4437 4.38474 12.4437 4.38474C9.37294 4.3498 6.30295 4.50346 3.25105 4.84486C2.75978 4.98115 2.30982 5.23673 1.94117 5.58889C1.57894 5.9374 1.31658 6.36718 1.17952 6.83807C0.850281 8.61173 0.690314 10.4127 0.701776 12.2166C0.690028 14.0189 0.849602 15.8192 1.17952 17.5951C1.31364 18.0641 1.57503 18.4919 1.93823 18.8375C2.30143 19.183 2.75372 19.4327 3.25105 19.5648C5.11405 20.0485 12.4437 20.0485 12.4437 20.0485C15.5183 20.0834 18.5922 19.9298 21.6481 19.5883C22.1393 19.4614 22.5901 19.2114 22.958 18.8619C23.3202 18.5163 23.5777 18.0866 23.7069 17.6186C24.0447 15.8456 24.209 14.044 24.1973 12.2391C24.2228 10.4266 24.0587 8.61645 23.7079 6.83807V6.83905ZM10.102 15.5686V8.86554L16.2304 12.2176L10.102 15.5686Z" fill="#075256"/>
</g>
</g>
</g>
<defs>
<filter id="filter0_i_1513_1262" x="0.701172" y="0.46875" width="23.4961" height="24.2699" filterUnits="userSpaceOnUse" color-interpolation-filters="sRGB">
<feFlood flood-opacity="0" result="BackgroundImageFix"/>
<feBlend mode="normal" in="SourceGraphic" in2="BackgroundImageFix" result="shape"/>
<feColorMatrix in="SourceAlpha" type="matrix" values="0 0 0 0 0 0 0 0 0 0 0 0 0 0 0 0 0 0 127 0" result="hardAlpha"/>
<feOffset dy="0.774828"/>
<feGaussianBlur stdDeviation="1.4528"/>
<feComposite in2="hardAlpha" operator="arithmetic" k2="-1" k3="1"/>
<feColorMatrix type="matrix" values="0 0 0 0 0 0 0 0 0 0 0 0 0 0 0 0 0 0 0.2 0"/>
<feBlend mode="normal" in2="shape" result="effect1_innerShadow_1513_1262"/>
</filter>
<clipPath id="clip0_1513_1262">
<rect width="23.4956" height="23.4956" fill="white" transform="translate(0.701172 0.46875)"/>
</clipPath>
</defs>
</svg>
