<svg width="22" height="24" viewBox="0 0 22 24" fill="none" xmlns="http://www.w3.org/2000/svg">
<path d="M19.5671 5.0551V3.67236C19.566 2.74442 19.197 1.85477 18.5408 1.19862C17.8846 0.542459 16.995 0.173383 16.0671 0.172364H4.40039C3.48314 0.171888 2.60264 0.532867 1.94969 1.17708C1.29674 1.8213 0.923934 2.69685 0.912057 3.61403C0.911241 3.63421 0.900391 3.6516 0.900391 3.67236V20.0057C0.903099 20.9331 1.27272 21.8218 1.92851 22.4776C2.5843 23.1334 3.47297 23.503 4.40039 23.5057H18.4004C19.3278 23.503 20.2165 23.1334 20.8723 22.4776C21.5281 21.8218 21.8977 20.9331 21.9004 20.0057V8.33903C21.8968 7.61803 21.6708 6.9157 21.2532 6.32795C20.8356 5.7402 20.2467 5.29568 19.5671 5.0551ZM16.0671 18.839C16.0661 19.1482 15.9429 19.4444 15.7243 19.663C15.5057 19.8816 15.2095 20.0048 14.9004 20.0057H7.90039C7.59126 20.0048 7.29504 19.8816 7.07645 19.663C6.85786 19.4444 6.73465 19.1482 6.73372 18.839C6.59024 17.9282 6.6894 16.9957 7.02122 16.1354C7.35304 15.2752 7.90578 14.5176 8.62372 13.939C8.15858 13.3374 7.90439 12.5995 7.90039 11.839C7.90039 10.9108 8.26914 10.0205 8.92552 9.36416C9.58189 8.70778 10.4721 8.33903 11.4004 8.33903C12.3286 8.33903 13.2189 8.70778 13.8753 9.36416C14.5316 10.0205 14.9004 10.9108 14.9004 11.839C14.8964 12.5995 14.6422 13.3374 14.1771 13.939C14.8946 14.5179 15.447 15.2755 15.7788 16.1357C16.1106 16.9959 16.21 17.9282 16.0671 18.839ZM17.2337 4.83903H4.54226C4.38539 4.85508 4.2269 4.83926 4.07631 4.7925C3.92571 4.74575 3.78612 4.66903 3.66593 4.56696C3.54574 4.46489 3.44742 4.33958 3.37689 4.19855C3.30636 4.05752 3.26507 3.90368 3.2555 3.74629C3.24593 3.58889 3.26828 3.43119 3.32121 3.28265C3.37413 3.13411 3.45654 2.99781 3.56348 2.88193C3.67042 2.76605 3.79969 2.67299 3.94351 2.60833C4.08733 2.54368 4.24274 2.50877 4.40039 2.5057H16.0671C16.3764 2.50601 16.6729 2.62902 16.8917 2.84775C17.1104 3.06647 17.2334 3.36304 17.2337 3.67236V4.83903Z" fill="#075256"/>
</svg>
