<svg width="28" height="29" viewBox="0 0 28 29" fill="none" xmlns="http://www.w3.org/2000/svg">
<g id="calendar-silhouette 1">
<path id="Vector" d="M22.1673 6.77136H21.0007V4.43803C21.0007 4.12861 20.8777 3.83186 20.6589 3.61307C20.4401 3.39428 20.1434 3.27136 19.834 3.27136C19.5246 3.27136 19.2278 3.39428 19.009 3.61307C18.7902 3.83186 18.6673 4.12861 18.6673 4.43803V6.77136H9.33398V4.43803C9.33398 4.12861 9.21107 3.83186 8.99228 3.61307C8.77348 3.39428 8.47674 3.27136 8.16732 3.27136C7.8579 3.27136 7.56115 3.39428 7.34236 3.61307C7.12357 3.83186 7.00065 4.12861 7.00065 4.43803V6.77136H5.83398C4.90573 6.77136 4.01549 7.14011 3.35911 7.79649C2.70273 8.45287 2.33398 9.3431 2.33398 10.2714V11.438H25.6673V10.2714C25.6673 9.3431 25.2986 8.45287 24.6422 7.79649C23.9858 7.14011 23.0956 6.77136 22.1673 6.77136Z" fill="#075256"/>
<path id="Vector_2" d="M2.33398 23.1047C2.33398 24.0329 2.70273 24.9232 3.35911 25.5796C4.01549 26.2359 4.90573 26.6047 5.83398 26.6047H22.1673C23.0956 26.6047 23.9858 26.2359 24.6422 25.5796C25.2986 24.9232 25.6673 24.0329 25.6673 23.1047V13.7714H2.33398V23.1047Z" fill="#075256"/>
</g>
</svg>
