<svg width="21" height="25" viewBox="0 0 21 25" fill="none" xmlns="http://www.w3.org/2000/svg">
<path id="Vector" d="M18.6667 5.65385V4.27112C18.6656 3.34317 18.2966 2.45353 17.6404 1.79737C16.9843 1.14121 16.0946 0.772138 15.1667 0.771119H3.5C2.58275 0.770643 1.70225 1.13162 1.0493 1.77584C0.396348 2.42005 0.0235438 3.29561 0.0116667 4.21279C0.01085 4.23297 0 4.25035 0 4.27112V20.6045C0.00270855 21.5319 0.372327 22.4205 1.02812 23.0763C1.68391 23.7321 2.57258 24.1017 3.5 24.1045H17.5C18.4274 24.1017 19.3161 23.7321 19.9719 23.0763C20.6277 22.4205 20.9973 21.5319 21 20.6045V8.93779C20.9965 8.21679 20.7704 7.51446 20.3528 6.92671C19.9352 6.33895 19.3464 5.89444 18.6667 5.65385ZM15.1667 19.4378C15.1657 19.7469 15.0425 20.0431 14.8239 20.2617C14.6053 20.4803 14.3091 20.6035 14 20.6045H7C6.69086 20.6035 6.39465 20.4803 6.17606 20.2617C5.95747 20.0431 5.83426 19.7469 5.83333 19.4378C5.68985 18.527 5.78901 17.5944 6.12083 16.7342C6.45264 15.8739 7.00539 15.1163 7.72333 14.5378C7.25819 13.9362 7.004 13.1982 7 12.4378C7 11.5095 7.36875 10.6193 8.02513 9.96291C8.6815 9.30653 9.57174 8.93779 10.5 8.93779C11.4283 8.93779 12.3185 9.30653 12.9749 9.96291C13.6313 10.6193 14 11.5095 14 12.4378C13.996 13.1982 13.7418 13.9362 13.2767 14.5378C13.9942 15.1167 14.5466 15.8743 14.8784 16.7345C15.2102 17.5946 15.3096 18.527 15.1667 19.4378ZM16.3333 5.43779H3.64187C3.485 5.45384 3.32651 5.43801 3.17591 5.39126C3.02532 5.34451 2.88573 5.26779 2.76554 5.16572C2.64535 5.06365 2.54703 4.93833 2.4765 4.7973C2.40597 4.65627 2.36468 4.50243 2.35511 4.34504C2.34554 4.18765 2.36789 4.02994 2.42081 3.88141C2.47374 3.73287 2.55615 3.59656 2.66309 3.48068C2.77003 3.3648 2.8993 3.27174 3.04312 3.20709C3.18694 3.14243 3.34234 3.10752 3.5 3.10445H15.1667C15.476 3.10476 15.7726 3.22778 15.9913 3.4465C16.21 3.66523 16.333 3.96179 16.3333 4.27112V5.43779Z" fill="#075256"/>
</svg>
