<svg width="21" height="21" viewBox="0 0 21 21" fill="none" xmlns="http://www.w3.org/2000/svg">
<g id="Career Icon" clip-path="url(#clip0_2_12191)">
<path id="Vector" d="M19.5272 4.90847H15.2037V3.57817C15.2025 2.66017 14.4588 1.91642 13.5408 1.91528H7.55442C6.63643 1.91642 5.89267 2.66017 5.89154 3.57817V4.90847H1.56804C1.01705 4.90847 0.570312 5.35521 0.570312 5.9062V13.3093C0.572424 13.7312 0.838257 14.1065 1.23547 14.2482V18.8767C1.23547 19.4277 1.6822 19.8744 2.2332 19.8744H18.862C19.413 19.8744 19.8598 19.4277 19.8598 18.8767V14.2485C20.257 14.1066 20.523 13.7312 20.5249 13.3093V5.9062C20.5249 5.35521 20.0782 4.90847 19.5272 4.90847ZM6.55669 3.57817C6.55669 3.02717 7.00343 2.58044 7.55442 2.58044H13.5408C14.0918 2.58044 14.5385 3.02717 14.5385 3.57817V4.90847H13.8734V3.57817C13.8734 3.3945 13.7245 3.24559 13.5408 3.24559H7.55442C7.37076 3.24559 7.22184 3.3945 7.22184 3.57817V4.90847H6.55669V3.57817ZM13.2082 4.90847H7.887V3.91074H13.2082V4.90847ZM19.1946 18.8767C19.1946 19.0604 19.0457 19.2093 18.862 19.2093H2.2332C2.04953 19.2093 1.90062 19.0604 1.90062 18.8767V14.3625L9.2173 15.3716V16.2161C9.2173 16.7671 9.66404 17.2138 10.215 17.2138H10.8802C11.4312 17.2138 11.8779 16.7671 11.8779 16.2161V15.3716L19.1946 14.3625V18.8767ZM11.2128 16.2161C11.2128 16.3997 11.0639 16.5487 10.8802 16.5487H10.215C10.0314 16.5487 9.88246 16.3997 9.88246 16.2161V14.2206C9.88246 14.037 10.0314 13.888 10.215 13.888H10.8802C11.0639 13.888 11.2128 14.037 11.2128 14.2206V16.2161ZM19.8598 13.3093C19.8599 13.4751 19.738 13.6157 19.5738 13.6389L19.4815 13.6516L11.8779 14.7002V14.2206C11.8779 13.6696 11.4312 13.2229 10.8802 13.2229H10.215C9.66404 13.2229 9.2173 13.6696 9.2173 14.2206V14.7002L1.52176 13.6389C1.35758 13.6159 1.2353 13.4752 1.23547 13.3093V5.9062C1.23547 5.72254 1.38438 5.57363 1.56804 5.57363H19.5272C19.7108 5.57363 19.8598 5.72254 19.8598 5.9062V13.3093Z" fill="black"/>
</g>
<defs>
<clipPath id="clip0_2_12191">
<rect width="19.9546" height="19.9546" fill="white" transform="translate(0.570312 0.917603)"/>
</clipPath>
</defs>
</svg>
