<svg width="21" height="22" viewBox="0 0 21 22" fill="none" xmlns="http://www.w3.org/2000/svg">
<path d="M1.64641 21.6277C1.44056 21.6273 1.23718 21.5829 1.04982 21.4976C0.862454 21.4122 0.695413 21.2879 0.559825 21.1329C0.424236 20.978 0.323214 20.7958 0.263488 20.5987C0.203763 20.4016 0.186706 20.194 0.213454 19.9897L0.731012 16.032C0.778305 15.6738 0.942043 15.3412 1.19698 15.0853L14.8328 1.44021C15.1307 1.14298 15.5342 0.976074 15.9548 0.976074C16.3755 0.976074 16.7789 1.14298 17.0768 1.44021L20.3748 4.74046C20.6718 5.03852 20.8386 5.44227 20.8386 5.8632C20.8386 6.28413 20.6718 6.68788 20.3748 6.98594L6.73895 20.6311C6.48334 20.8862 6.15088 21.0501 5.79292 21.0973L1.83788 21.6152C1.7744 21.6236 1.71044 21.6278 1.64641 21.6277ZM2.71256 16.4208L2.30747 19.5198L5.40435 19.1144L18.6464 5.8634L15.9546 3.16979L2.71256 16.4208Z" fill="#075256"/>
<path d="M16.6009 10.3452C16.4686 10.3456 16.3376 10.3199 16.2153 10.2695C16.093 10.2191 15.9819 10.1451 15.8882 10.0516L11.7696 5.93011C11.5806 5.74076 11.4745 5.48404 11.4746 5.21641C11.4748 4.94878 11.5811 4.69217 11.7704 4.50304C11.9596 4.3139 12.2161 4.20773 12.4836 4.20789C12.751 4.20804 13.0075 4.3145 13.1965 4.50385L17.3135 8.62372C17.4545 8.76475 17.5505 8.94444 17.5894 9.14007C17.6283 9.33571 17.6084 9.53849 17.5321 9.72277C17.4558 9.90705 17.3266 10.0646 17.1608 10.1754C16.9951 10.2862 16.8002 10.3453 16.6009 10.3452Z" fill="#075256"/>
</svg>
