<svg width="51" height="50" viewBox="0 0 51 50" fill="none" xmlns="http://www.w3.org/2000/svg">
<g id="Group 39337">
<g id="pencil">
<path id="Vector" d="M16.6464 32.6277C16.4406 32.6273 16.2372 32.5829 16.0498 32.4976C15.8625 32.4122 15.6954 32.2879 15.5598 32.1329C15.4242 31.978 15.3232 31.7958 15.2635 31.5987C15.2038 31.4016 15.1867 31.194 15.2135 30.9897L15.731 27.032C15.7783 26.6738 15.942 26.3412 16.197 26.0853L29.8328 12.4402C30.1307 12.143 30.5342 11.9761 30.9548 11.9761C31.3755 11.9761 31.7789 12.143 32.0768 12.4402L35.3748 15.7405C35.6718 16.0385 35.8386 16.4423 35.8386 16.8632C35.8386 17.2841 35.6718 17.6879 35.3748 17.9859L21.739 31.6311C21.4833 31.8862 21.1509 32.0501 20.7929 32.0973L16.8379 32.6152C16.7744 32.6236 16.7104 32.6278 16.6464 32.6277ZM17.7126 27.4208L17.3075 30.5198L20.4043 30.1144L33.6464 16.8634L30.9546 14.1698L17.7126 27.4208Z" fill="#075256"/>
<path id="Vector_2" d="M31.6009 21.3452C31.4686 21.3456 31.3376 21.3199 31.2153 21.2695C31.093 21.2191 30.9819 21.1451 30.8882 21.0516L26.7696 16.9301C26.5806 16.7408 26.4745 16.484 26.4746 16.2164C26.4748 15.9488 26.5811 15.6922 26.7704 15.503C26.9596 15.3139 27.2161 15.2077 27.4836 15.2079C27.751 15.208 28.0075 15.3145 28.1965 15.5038L32.3135 19.6237C32.4545 19.7647 32.5505 19.9444 32.5894 20.1401C32.6283 20.3357 32.6084 20.5385 32.5321 20.7228C32.4558 20.9071 32.3266 21.0646 32.1608 21.1754C31.9951 21.2862 31.8002 21.3453 31.6009 21.3452Z" fill="#075256"/>
</g>
</g>
<defs>
<filter id="filter0_d_2_12153" x="0.825301" y="0.600893" width="49.3904" height="49.3902" filterUnits="userSpaceOnUse" color-interpolation-filters="sRGB">
<feFlood flood-opacity="0" result="BackgroundImageFix"/>
<feColorMatrix in="SourceAlpha" type="matrix" values="0 0 0 0 0 0 0 0 0 0 0 0 0 0 0 0 0 0 127 0" result="hardAlpha"/>
<feOffset dy="2.9941"/>
<feGaussianBlur stdDeviation="3.74262"/>
<feComposite in2="hardAlpha" operator="out"/>
<feColorMatrix type="matrix" values="0 0 0 0 0 0 0 0 0 0 0 0 0 0 0 0 0 0 0.1 0"/>
<feBlend mode="normal" in2="BackgroundImageFix" result="effect1_dropShadow_2_12153"/>
<feBlend mode="normal" in="SourceGraphic" in2="effect1_dropShadow_2_12153" result="shape"/>
</filter>
</defs>
</svg>
