<svg width="27" height="27" viewBox="0 0 27 27" fill="none" xmlns="http://www.w3.org/2000/svg">
<path id="Subtract" fill-rule="evenodd" clip-rule="evenodd" d="M5.72896 0.338867C2.79362 0.338867 0.414062 2.71843 0.414062 5.65376V21.5984C0.414062 24.5338 2.79362 26.9133 5.72895 26.9133H21.6736C24.609 26.9133 26.9885 24.5338 26.9885 21.5984V5.65376C26.9885 2.71843 24.609 0.338867 21.6736 0.338867H5.72896ZM5.39412 11.1093C5.05928 11.763 4.89186 12.5084 4.89186 13.3455C4.89186 14.1826 5.05928 14.928 5.39412 15.5818C5.73693 16.2355 6.22324 16.7457 6.85306 17.1124C7.48287 17.4712 8.2243 17.6506 9.07734 17.6506C9.81079 17.6506 10.4645 17.515 11.0385 17.244C11.6205 16.965 12.0909 16.5743 12.4496 16.0721C12.8164 15.5698 13.0595 14.9838 13.1791 14.3141H10.3808C10.2533 14.5932 10.0699 14.8124 9.83072 14.9719C9.59953 15.1233 9.33245 15.1991 9.0295 15.1991C8.58305 15.1991 8.22828 15.0317 7.9652 14.6968C7.71008 14.362 7.58252 13.9115 7.58252 13.3455C7.58252 12.7795 7.71008 12.329 7.9652 11.9942C8.22828 11.6594 8.58305 11.4919 9.0295 11.4919C9.33245 11.4919 9.59953 11.5717 9.83072 11.7311C10.0699 11.8826 10.2533 12.0978 10.3808 12.3769H13.1791C13.0595 11.7072 12.8164 11.1212 12.4496 10.619C12.0909 10.1167 11.6205 9.73005 11.0385 9.459C10.4645 9.17996 9.81079 9.04045 9.07734 9.04045C8.2243 9.04045 7.48287 9.22381 6.85306 9.59054C6.22324 9.94929 5.73693 10.4555 5.39412 11.1093ZM19.8152 17.5908L22.6614 9.12416H19.8392L18.1052 14.948L16.3592 9.12416H13.537L16.3831 17.5908H19.8152Z" fill="#16A799"/>
</svg>
