<svg width="36" height="36" viewBox="0 0 36 36" fill="none" xmlns="http://www.w3.org/2000/svg">
<g id="united-states 1" clip-path="url(#clip0_2_9388)">
<path id="Vector" d="M17.8879 35.4774C27.5352 35.4774 35.3558 27.6567 35.3558 18.0095C35.3558 8.36217 27.5352 0.541504 17.8879 0.541504C8.24059 0.541504 0.419922 8.36217 0.419922 18.0095C0.419922 27.6567 8.24059 35.4774 17.8879 35.4774Z" fill="#F0F0F0"/>
<g id="Group">
<path id="Vector_2" d="M17.1289 18.0093H35.3563C35.3563 16.4326 35.1461 14.9053 34.7546 13.4524H17.1289V18.0093Z" fill="#D80027"/>
<path id="Vector_3" d="M17.1289 8.89575H32.7925C31.7232 7.15087 30.356 5.60857 28.7619 4.33887H17.1289V8.89575Z" fill="#D80027"/>
<path id="Vector_4" d="M17.8872 35.4775C21.9983 35.4775 25.7769 34.0566 28.7607 31.6802H7.01367C9.99756 34.0566 13.7762 35.4775 17.8872 35.4775Z" fill="#D80027"/>
<path id="Vector_5" d="M2.98356 27.123H32.7918C33.6503 25.7223 34.316 24.1911 34.7539 22.5662H1.02148C1.45934 24.1911 2.1251 25.7223 2.98356 27.123Z" fill="#D80027"/>
</g>
<path id="Vector_6" d="M8.51141 3.26937H10.1032L8.62256 4.34508L9.18815 6.08567L7.70754 5.00996L6.22692 6.08567L6.71548 4.58199C5.4118 5.66794 4.26915 6.94023 3.32752 8.35787H3.83757L2.89505 9.0426C2.74821 9.28756 2.60737 9.53641 2.47241 9.78894L2.92248 11.1742L2.08279 10.5641C1.87406 11.0063 1.68314 11.4585 1.51153 11.9201L2.00739 13.4464H3.83757L2.35689 14.5221L2.92248 16.2627L1.44187 15.187L0.554957 15.8314C0.466185 16.5449 0.419922 17.2718 0.419922 18.0095H17.8879C17.8879 8.36223 17.8879 7.22491 17.8879 0.541504C14.4371 0.541504 11.2204 1.5425 8.51141 3.26937ZM9.18815 16.2627L7.70754 15.187L6.22692 16.2627L6.79252 14.5221L5.31184 13.4464H7.14201L7.70754 11.7058L8.27306 13.4464H10.1032L8.62256 14.5221L9.18815 16.2627ZM8.62256 9.43358L9.18815 11.1742L7.70754 10.0985L6.22692 11.1742L6.79252 9.43358L5.31184 8.35787H7.14201L7.70754 6.61728L8.27306 8.35787H10.1032L8.62256 9.43358ZM15.4538 16.2627L13.9732 15.187L12.4926 16.2627L13.0582 14.5221L11.5775 13.4464H13.4077L13.9732 11.7058L14.5387 13.4464H16.3689L14.8882 14.5221L15.4538 16.2627ZM14.8882 9.43358L15.4538 11.1742L13.9732 10.0985L12.4926 11.1742L13.0582 9.43358L11.5775 8.35787H13.4077L13.9732 6.61728L14.5387 8.35787H16.3689L14.8882 9.43358ZM14.8882 4.34508L15.4538 6.08567L13.9732 5.00996L12.4926 6.08567L13.0582 4.34508L11.5775 3.26937H13.4077L13.9732 1.52878L14.5387 3.26937H16.3689L14.8882 4.34508Z" fill="#0052B4"/>
</g>
<defs>
<clipPath id="clip0_2_9388">
<rect width="34.9359" height="34.9359" fill="white" transform="translate(0.419922 0.541504)"/>
</clipPath>
</defs>
</svg>
