<svg width="24" height="25" viewBox="0 0 24 25" fill="none" xmlns="http://www.w3.org/2000/svg">
<g id="Layer 56">
<path id="Vector" d="M7 0.770996H3.5C1.567 0.770996 0 2.338 0 4.271V7.771C0 9.70399 1.567 11.271 3.5 11.271H7C8.933 11.271 10.5 9.70399 10.5 7.771V4.271C10.5 2.338 8.933 0.770996 7 0.770996Z" fill="#075256"/>
<path id="Vector_2" d="M19.834 0.770996H16.334C14.401 0.770996 12.834 2.338 12.834 4.271V7.771C12.834 9.70399 14.401 11.271 16.334 11.271H19.834C21.767 11.271 23.334 9.70399 23.334 7.771V4.271C23.334 2.338 21.767 0.770996 19.834 0.770996Z" fill="#075256"/>
<path id="Vector_3" d="M7 13.6042H3.5C1.567 13.6042 0 15.1713 0 17.1042V20.6042C0 22.5372 1.567 24.1042 3.5 24.1042H7C8.933 24.1042 10.5 22.5372 10.5 20.6042V17.1042C10.5 15.1713 8.933 13.6042 7 13.6042Z" fill="#075256"/>
<path id="Vector_4" d="M19.834 13.6042H16.334C14.401 13.6042 12.834 15.1713 12.834 17.1042V20.6042C12.834 22.5372 14.401 24.1042 16.334 24.1042H19.834C21.767 24.1042 23.334 22.5372 23.334 20.6042V17.1042C23.334 15.1713 21.767 13.6042 19.834 13.6042Z" fill="#075256"/>
</g>
</svg>
