<svg width="27" height="27" viewBox="0 0 27 27" fill="none" xmlns="http://www.w3.org/2000/svg">
<g id="Group 39313">
<path id="Vector" d="M20.1287 10.3858C20.1288 9.39548 19.9835 8.41051 19.6974 7.46242C19.2911 6.11381 18.6063 4.86549 17.6871 3.79825C16.768 2.73101 15.6351 1.86861 14.3616 1.26685C13.0881 0.665095 11.7025 0.337383 10.2944 0.304919C8.88633 0.272456 7.48709 0.535964 6.18725 1.07839C4.88741 1.62082 3.71593 2.43009 2.74859 3.45384C1.78125 4.47759 1.0396 5.69302 0.571636 7.02149C0.10367 8.34995 -0.0801933 9.76186 0.0319421 11.1659C0.144078 12.5699 0.549714 13.9347 1.22261 15.172L0.0369813 19.3335C-0.000117783 19.4638 -0.00649137 19.6008 0.018362 19.7339C0.0432153 19.867 0.0986174 19.9925 0.180209 20.1006C0.2618 20.2086 0.367354 20.2963 0.488564 20.3566C0.609774 20.4169 0.743334 20.4483 0.878731 20.4483C0.959785 20.4481 1.04044 20.4369 1.11848 20.415L5.28086 19.2285C5.87142 19.5522 6.49434 19.8129 7.13936 20.0064C8.08728 20.2997 9.07396 20.4487 10.0662 20.4483C12.7341 20.4453 15.2917 19.3842 17.1782 17.4977C19.0646 15.6113 20.1257 13.0536 20.1287 10.3858Z" fill="#075256"/>
<path id="Vector_2" d="M26.2198 25.4585L25.0341 21.297C26.2451 19.0683 26.5681 16.464 25.9384 14.0069C25.3087 11.5499 23.7728 9.42196 21.6391 8.05042C21.9897 9.76525 21.954 11.5366 21.5345 13.2359C21.1151 14.9352 20.3224 16.5198 19.2142 17.8745C18.1059 19.2293 16.7099 20.3202 15.1274 21.0681C13.545 21.816 11.8158 22.2021 10.0655 22.1983C9.28563 22.1959 8.50794 22.1153 7.74414 21.9577C8.659 23.3669 9.90993 24.5266 11.3843 25.3323C12.8587 26.138 14.5103 26.5645 16.1905 26.5733C17.8627 26.5735 19.5083 26.1545 20.9768 25.3544L25.1383 26.54C25.2163 26.5619 25.297 26.5731 25.378 26.5733C25.5134 26.5733 25.647 26.5419 25.7682 26.4816C25.8894 26.4213 25.9949 26.3336 26.0765 26.2256C26.1581 26.1175 26.2135 25.992 26.2384 25.8589C26.2632 25.7258 26.2569 25.5888 26.2198 25.4585Z" fill="#075256"/>
</g>
</svg>
