<svg width="19" height="19" viewBox="0 0 19 19" fill="none" xmlns="http://www.w3.org/2000/svg">
<g id="Location Icon" opacity="0.75" clip-path="url(#clip0_2_12166)">
<g id="Group">
<g id="Group_2">
<path id="Vector" d="M9.76466 0.457764C6.21879 0.457764 3.33398 3.34257 3.33398 6.88844C3.33398 8.08648 3.66584 9.25565 4.29391 10.27L9.39862 18.4961C9.4964 18.6537 9.66867 18.7495 9.85394 18.7495C9.85537 18.7495 9.85677 18.7495 9.8582 18.7495C10.0451 18.748 10.2177 18.6493 10.3137 18.489L15.2883 10.1831C15.8817 9.1902 16.1953 8.05093 16.1953 6.88844C16.1953 3.34257 13.3105 0.457764 9.76466 0.457764ZM14.3685 9.63284L9.84583 17.1842L5.20485 9.7053C4.68207 8.86102 4.39862 7.88699 4.39862 6.88844C4.39862 3.93355 6.80977 1.5224 9.76466 1.5224C12.7196 1.5224 15.1271 3.93355 15.1271 6.88844C15.1271 7.85737 14.8624 8.8065 14.3685 9.63284Z" fill="black"/>
</g>
</g>
<g id="Group_3">
<g id="Group_4">
<path id="Vector_2" d="M9.76417 3.6731C7.99123 3.6731 6.54883 5.1155 6.54883 6.88844C6.54883 8.65005 7.96776 10.1038 9.76417 10.1038C11.5827 10.1038 12.9795 8.63069 12.9795 6.88844C12.9795 5.1155 11.5371 3.6731 9.76417 3.6731ZM9.76417 9.03914C8.57603 9.03914 7.61346 8.07336 7.61346 6.88844C7.61346 5.70648 8.58221 4.73773 9.76417 4.73773C10.9461 4.73773 11.9113 5.70648 11.9113 6.88844C11.9113 8.05607 10.9711 9.03914 9.76417 9.03914Z" fill="black"/>
</g>
</g>
</g>
<defs>
<clipPath id="clip0_2_12166">
<rect width="18.2917" height="18.2917" fill="white" transform="translate(0.619141 0.457764)"/>
</clipPath>
</defs>
</svg>
