<svg width="28" height="29" viewBox="0 0 28 29" fill="none" xmlns="http://www.w3.org/2000/svg">
<g id="Membership">
<path id="Vector" d="M22.166 2.10437H5.83268C5.55312 2.10759 5.28401 2.21109 5.07435 2.39604C5.90634 2.68875 6.63835 3.21126 7.18554 3.90298C7.73272 4.59471 8.07268 5.42734 8.16602 6.30437C8.18385 6.45941 8.18385 6.61599 8.16602 6.77104V26.6044C8.16546 26.8275 8.22892 27.0461 8.34885 27.2343C8.46879 27.4225 8.64017 27.5723 8.84268 27.666C9.04567 27.7595 9.27122 27.7927 9.49252 27.7616C9.71382 27.7306 9.92155 27.6367 10.091 27.491L13.416 24.6444L16.741 27.491C16.9523 27.6718 17.2213 27.7711 17.4993 27.7711C17.7774 27.7711 18.0464 27.6718 18.2577 27.491L21.5827 24.6444L24.9077 27.491C25.119 27.6718 25.3879 27.7711 25.666 27.771C25.8348 27.7698 26.0016 27.7341 26.156 27.666C26.3585 27.5723 26.5299 27.4225 26.6498 27.2343C26.7698 27.0461 26.8332 26.8275 26.8327 26.6044V6.77104C26.8327 5.53336 26.341 4.34637 25.4658 3.47121C24.5907 2.59604 23.4037 2.10437 22.166 2.10437ZM20.9993 18.4377H13.9993C13.6899 18.4377 13.3932 18.3148 13.1744 18.096C12.9556 17.8772 12.8327 17.5805 12.8327 17.271C12.8327 16.9616 12.9556 16.6649 13.1744 16.4461C13.3932 16.2273 13.6899 16.1044 13.9993 16.1044H20.9993C21.3088 16.1044 21.6055 16.2273 21.8243 16.4461C22.0431 16.6649 22.166 16.9616 22.166 17.271C22.166 17.5805 22.0431 17.8772 21.8243 18.096C21.6055 18.3148 21.3088 18.4377 20.9993 18.4377ZM20.9993 13.771H13.9993C13.6899 13.771 13.3932 13.6481 13.1744 13.4293C12.9556 13.2105 12.8327 12.9138 12.8327 12.6044C12.8327 12.295 12.9556 11.9982 13.1744 11.7794C13.3932 11.5606 13.6899 11.4377 13.9993 11.4377H20.9993C21.3088 11.4377 21.6055 11.5606 21.8243 11.7794C22.0431 11.9982 22.166 12.295 22.166 12.6044C22.166 12.9138 22.0431 13.2105 21.8243 13.4293C21.6055 13.6481 21.3088 13.771 20.9993 13.771ZM20.9993 9.10437H13.9993C13.6899 9.10437 13.3932 8.98145 13.1744 8.76266C12.9556 8.54387 12.8327 8.24712 12.8327 7.9377C12.8327 7.62828 12.9556 7.33154 13.1744 7.11275C13.3932 6.89395 13.6899 6.77104 13.9993 6.77104H20.9993C21.3088 6.77104 21.6055 6.89395 21.8243 7.11275C22.0431 7.33154 22.166 7.62828 22.166 7.9377C22.166 8.24712 22.0431 8.54387 21.8243 8.76266C21.6055 8.98145 21.3088 9.10437 20.9993 9.10437ZM5.83268 6.77104V16.1044H2.33268C2.02326 16.1044 1.72652 15.9815 1.50772 15.7627C1.28893 15.5439 1.16602 15.2471 1.16602 14.9377V6.77104C1.16602 6.6077 1.16602 6.45604 1.16602 6.30437C1.2279 5.68553 1.53308 5.11662 2.01442 4.7228C2.49577 4.32897 3.11384 4.14249 3.73268 4.20437C4.35152 4.26625 4.92043 4.57144 5.31426 5.05278C5.70808 5.53412 5.89457 6.1522 5.83268 6.77104Z" fill="#075256"/>
</g>
</svg>
