<svg width="28" height="29" viewBox="0 0 28 29" fill="none" xmlns="http://www.w3.org/2000/svg">
<g id="setting 1">
<g id="Layer 2">
<path id="Vector" d="M25.5588 11.2978C25.0482 11.2236 24.5609 11.0352 24.1333 10.7467C23.7056 10.4581 23.3485 10.0767 23.0887 9.631C22.8288 9.18529 22.6728 8.68669 22.6324 8.17234C22.5919 7.658 22.668 7.14115 22.855 6.6603C22.9739 6.34593 22.9914 6.00225 22.9051 5.67743C22.8188 5.35261 22.633 5.06295 22.3738 4.84904C21.2293 3.888 19.9266 3.13303 18.5238 2.61779C18.2043 2.49913 17.8556 2.4843 17.5272 2.57543C17.1989 2.66655 16.9076 2.85898 16.695 3.12529C16.375 3.53449 15.966 3.86544 15.4991 4.09306C15.0321 4.32067 14.5195 4.43896 14 4.43896C13.4806 4.43896 12.9679 4.32067 12.501 4.09306C12.034 3.86544 11.625 3.53449 11.305 3.12529C11.0924 2.85898 10.8012 2.66655 10.4728 2.57543C10.1445 2.4843 9.79571 2.49913 9.47627 2.61779C8.18098 3.09348 6.96991 3.77286 5.88877 4.63029C5.61625 4.84604 5.41995 5.14337 5.32863 5.47874C5.23731 5.81411 5.25575 6.16991 5.38127 6.49404C5.58318 6.98762 5.6666 7.52165 5.62485 8.05329C5.58309 8.58494 5.41731 9.09939 5.14082 9.55539C4.86433 10.0114 4.48481 10.3963 4.03271 10.6791C3.58062 10.9619 3.06853 11.1349 2.53752 11.184C2.19278 11.2209 1.86898 11.3675 1.61379 11.6022C1.35861 11.8369 1.18552 12.1473 1.12002 12.4878C0.957092 13.2943 0.875019 14.115 0.875019 14.9378C0.873821 15.6266 0.929427 16.3144 1.04127 16.994C1.09693 17.3454 1.2668 17.6687 1.5246 17.9138C1.78241 18.159 2.11379 18.3124 2.46752 18.3503C3.01019 18.4012 3.53277 18.5814 3.99151 18.8757C4.45026 19.1701 4.83182 19.57 5.10427 20.0421C5.37672 20.5142 5.53213 21.0446 5.55749 21.5891C5.58284 22.1336 5.47741 22.6762 5.25002 23.1715C5.10121 23.4938 5.06429 23.8564 5.14514 24.202C5.22599 24.5476 5.41996 24.8563 5.69627 25.079C6.83387 26.0226 8.12402 26.7654 9.51127 27.2753C9.68867 27.3367 9.8748 27.3692 10.0625 27.3715C10.3199 27.371 10.5734 27.3087 10.8018 27.19C11.0302 27.0712 11.2267 26.8994 11.375 26.689C11.6869 26.2347 12.1049 25.8633 12.5929 25.6071C13.0808 25.3509 13.6239 25.2177 14.175 25.219C14.709 25.2197 15.2354 25.3451 15.7124 25.5851C16.1894 25.8251 16.6038 26.1731 16.9225 26.6015C17.1345 26.8865 17.4349 27.0934 17.7767 27.19C18.1186 27.2865 18.4827 27.2673 18.8125 27.1353C20.081 26.6248 21.2619 25.9192 22.3125 25.044C22.5764 24.8258 22.7644 24.5296 22.8493 24.1978C22.9342 23.8661 22.9117 23.516 22.785 23.1978C22.5792 22.7106 22.4895 22.1822 22.5229 21.6543C22.5563 21.1265 22.712 20.6137 22.9776 20.1563C23.2432 19.6989 23.6114 19.3095 24.0533 19.0189C24.4952 18.7282 24.9986 18.5443 25.5238 18.4815C25.8643 18.4345 26.181 18.2802 26.428 18.041C26.675 17.8019 26.8394 17.4904 26.8975 17.1515C27.038 16.4217 27.1142 15.681 27.125 14.9378C27.1252 14.1539 27.052 13.3718 26.9063 12.6015C26.8472 12.2702 26.6852 11.9659 26.4433 11.7318C26.2014 11.4978 25.8919 11.3459 25.5588 11.2978ZM18.375 14.9378C18.375 15.8031 18.1184 16.6489 17.6377 17.3684C17.157 18.0879 16.4737 18.6486 15.6743 18.9798C14.8748 19.3109 13.9952 19.3975 13.1465 19.2287C12.2978 19.0599 11.5183 18.6432 10.9064 18.0314C10.2946 17.4195 9.87789 16.64 9.70908 15.7913C9.54027 14.9426 9.62691 14.063 9.95805 13.2636C10.2892 12.4641 10.8499 11.7808 11.5694 11.3001C12.2889 10.8194 13.1347 10.5628 14 10.5628C15.1603 10.5628 16.2731 11.0237 17.0936 11.8442C17.9141 12.6647 18.375 13.7775 18.375 14.9378Z" fill="#075256"/>
</g>
</g>
</svg>
