<svg width="25" height="25" viewBox="0 0 25 25" fill="none" xmlns="http://www.w3.org/2000/svg">
<g id="ShareNetwork">
<path id="Vector" d="M6.9502 15.017C8.60705 15.017 9.9502 13.6738 9.9502 12.017C9.9502 10.3601 8.60705 9.01697 6.9502 9.01697C5.29334 9.01697 3.9502 10.3601 3.9502 12.017C3.9502 13.6738 5.29334 15.017 6.9502 15.017Z" stroke="#7C7C7C" stroke-width="1.5" stroke-linecap="round" stroke-linejoin="round"/>
<path id="Vector_2" d="M17.4502 21.767C19.107 21.767 20.4502 20.4238 20.4502 18.767C20.4502 17.1101 19.107 15.767 17.4502 15.767C15.7933 15.767 14.4502 17.1101 14.4502 18.767C14.4502 20.4238 15.7933 21.767 17.4502 21.767Z" stroke="#7C7C7C" stroke-width="1.5" stroke-linecap="round" stroke-linejoin="round"/>
<path id="Vector_3" d="M17.4502 8.26697C19.107 8.26697 20.4502 6.92382 20.4502 5.26697C20.4502 3.61011 19.107 2.26697 17.4502 2.26697C15.7933 2.26697 14.4502 3.61011 14.4502 5.26697C14.4502 6.92382 15.7933 8.26697 17.4502 8.26697Z" stroke="#7C7C7C" stroke-width="1.5" stroke-linecap="round" stroke-linejoin="round"/>
<path id="Vector_4" d="M14.9272 6.88916L9.47363 10.395" stroke="#7C7C7C" stroke-width="1.5" stroke-linecap="round" stroke-linejoin="round"/>
<path id="Vector_5" d="M9.47363 13.6389L14.9272 17.1448" stroke="#7C7C7C" stroke-width="1.5" stroke-linecap="round" stroke-linejoin="round"/>
</g>
</svg>
