<svg width="18" height="18" viewBox="0 0 18 18" fill="none" xmlns="http://www.w3.org/2000/svg">
<g id="Time Icon" opacity="0.75" clip-path="url(#clip0_2_12182)">
<g id="Group">
<g id="Group_2">
<path id="Vector" d="M11.8957 10.2777L9.57715 8.53884V4.9967C9.57715 4.64055 9.28926 4.35266 8.9331 4.35266C8.57695 4.35266 8.28906 4.64055 8.28906 4.9967V8.86089C8.28906 9.06375 8.38439 9.25505 8.54668 9.37613L11.1228 11.3082C11.2387 11.3952 11.374 11.437 11.5086 11.437C11.705 11.437 11.8982 11.3488 12.0244 11.1788C12.2383 10.8947 12.1803 10.4909 11.8957 10.2777Z" fill="black"/>
</g>
</g>
<g id="Group_3">
<g id="Group_4">
<path id="Vector_2" d="M8.93355 0.494873C4.34871 0.494873 0.619141 4.22444 0.619141 8.80929C0.619141 13.3941 4.34871 17.1237 8.93355 17.1237C13.5184 17.1237 17.248 13.3941 17.248 8.80929C17.248 4.22444 13.5184 0.494873 8.93355 0.494873ZM8.93355 15.8356C5.05972 15.8356 1.90719 12.6831 1.90719 8.80929C1.90719 4.93545 5.05972 1.78293 8.93355 1.78293C12.808 1.78293 15.9599 4.93545 15.9599 8.80929C15.9599 12.6831 12.8074 15.8356 8.93355 15.8356Z" fill="black"/>
</g>
</g>
</g>
<defs>
<clipPath id="clip0_2_12182">
<rect width="16.6288" height="16.6288" fill="white" transform="translate(0.619141 0.494873)"/>
</clipPath>
</defs>
</svg>
