<svg width="18" height="17" viewBox="0 0 18 17" fill="none" xmlns="http://www.w3.org/2000/svg">
<g id="User Icon" opacity="0.75" clip-path="url(#clip0_2_12176)">
<g id="Group">
<g id="Group_2">
<path id="Vector" d="M14.7639 10.9559C13.8583 10.0504 12.7805 9.37999 11.6044 8.97417C12.864 8.10665 13.6915 6.65478 13.6915 5.01307C13.6915 2.36262 11.5352 0.206299 8.88473 0.206299C6.23428 0.206299 4.07796 2.36262 4.07796 5.01307C4.07796 6.65478 4.90547 8.10665 6.16507 8.97417C4.98903 9.37999 3.91115 10.0504 3.00556 10.9559C1.43517 12.5263 0.570312 14.6143 0.570312 16.8351H1.86944C1.86944 12.9669 5.01648 9.81984 8.88473 9.81984C12.753 9.81984 15.9 12.9669 15.9 16.8351H17.1991C17.1991 14.6143 16.3343 12.5263 14.7639 10.9559ZM8.88473 8.52071C6.95062 8.52071 5.37708 6.94721 5.37708 5.01307C5.37708 3.07893 6.95062 1.50543 8.88473 1.50543C10.8188 1.50543 12.3924 3.07893 12.3924 5.01307C12.3924 6.94721 10.8188 8.52071 8.88473 8.52071Z" fill="black"/>
</g>
</g>
</g>
<defs>
<clipPath id="clip0_2_12176">
<rect width="16.6288" height="16.6288" fill="white" transform="translate(0.570312 0.206299)"/>
</clipPath>
</defs>
</svg>
